<svg width="33" height="33" viewBox="0 0 33 33" fill="none" xmlns="http://www.w3.org/2000/svg">
<g id="Group 37295">
<g id="Group 37296">
<circle id="Ellipse 1" cx="16.5" cy="16.5" r="16.5" fill="#036C66"/>
<path id="Icon" d="M18.8571 12.9643H15.9107C14.9343 12.9643 14.1428 13.7558 14.1428 14.7321C14.1428 15.7085 14.9343 16.5 15.9107 16.5H17.0892C18.0656 16.5 18.8571 17.2915 18.8571 18.2679C18.8571 19.2442 18.0656 20.0357 17.0892 20.0357H14.1428M16.4999 11.7857V12.9643M16.4999 20.0357V21.2143M23.5714 16.5H23.5832M9.42852 16.5H9.44031M4.71423 12.0214L4.71423 20.9786C4.71423 22.2987 4.71423 22.9588 4.97115 23.463C5.19713 23.9065 5.55773 24.2671 6.00126 24.4931C6.50548 24.75 7.16554 24.75 8.48566 24.75L24.5142 24.75C25.8344 24.75 26.4944 24.75 26.9986 24.4931C27.4422 24.2671 27.8028 23.9065 28.0287 23.463C28.2857 22.9588 28.2857 22.2987 28.2857 20.9786V12.0214C28.2857 10.7013 28.2857 10.0412 28.0288 9.53702C27.8028 9.0935 27.4422 8.7329 26.9986 8.50691C26.4944 8.25 25.8344 8.25 24.5142 8.25L8.48566 8.25C7.16554 8.25 6.50548 8.25 6.00126 8.50691C5.55773 8.7329 5.19713 9.0935 4.97115 9.53702C4.71423 10.0412 4.71423 10.7013 4.71423 12.0214ZM24.1607 16.5C24.1607 16.8255 23.8968 17.0893 23.5714 17.0893C23.2459 17.0893 22.9821 16.8255 22.9821 16.5C22.9821 16.1745 23.2459 15.9107 23.5714 15.9107C23.8968 15.9107 24.1607 16.1745 24.1607 16.5ZM10.0178 16.5C10.0178 16.8255 9.75397 17.0893 9.42852 17.0893C9.10307 17.0893 8.83923 16.8255 8.83923 16.5C8.83923 16.1745 9.10307 15.9107 9.42852 15.9107C9.75397 15.9107 10.0178 16.1745 10.0178 16.5Z" stroke="white" stroke-linecap="round" stroke-linejoin="round"/>
</g>
</g>
</svg>
