<svg width="33" height="33" viewBox="0 0 33 33" fill="none" xmlns="http://www.w3.org/2000/svg">
<g id="Group 37295">
<g id="Group 37296">
<circle id="Ellipse 1" cx="16.5" cy="16.5" r="16.5" fill="#477628"/>
<path id="Icon" d="M18.8571 12.9643H15.9107C14.9343 12.9643 14.1429 13.7558 14.1429 14.7321C14.1429 15.7085 14.9343 16.5 15.9107 16.5H17.0893C18.0656 16.5 18.8571 17.2915 18.8571 18.2679C18.8571 19.2442 18.0656 20.0357 17.0893 20.0357H14.1429M16.5 11.7857V12.9643M16.5 20.0357V21.2143M23.5714 16.5H23.5832M9.42857 16.5H9.44035M4.71428 12.0214L4.71428 20.9786C4.71428 22.2987 4.71428 22.9588 4.97119 23.463C5.19718 23.9065 5.55778 24.2671 6.0013 24.4931C6.50552 24.75 7.16558 24.75 8.48571 24.75L24.5143 24.75C25.8344 24.75 26.4945 24.75 26.9987 24.4931C27.4422 24.2671 27.8028 23.9065 28.0288 23.463C28.2857 22.9588 28.2857 22.2987 28.2857 20.9786V12.0214C28.2857 10.7013 28.2857 10.0412 28.0288 9.53702C27.8028 9.0935 27.4422 8.7329 26.9987 8.50691C26.4945 8.25 25.8344 8.25 24.5143 8.25L8.48571 8.25C7.16558 8.25 6.50552 8.25 6.0013 8.50691C5.55778 8.7329 5.19718 9.0935 4.97119 9.53702C4.71428 10.0412 4.71428 10.7013 4.71428 12.0214ZM24.1607 16.5C24.1607 16.8255 23.8969 17.0893 23.5714 17.0893C23.246 17.0893 22.9821 16.8255 22.9821 16.5C22.9821 16.1745 23.246 15.9107 23.5714 15.9107C23.8969 15.9107 24.1607 16.1745 24.1607 16.5ZM10.0179 16.5C10.0179 16.8255 9.75402 17.0893 9.42857 17.0893C9.10311 17.0893 8.83928 16.8255 8.83928 16.5C8.83928 16.1745 9.10311 15.9107 9.42857 15.9107C9.75402 15.9107 10.0179 16.1745 10.0179 16.5Z" stroke="white" stroke-linecap="round" stroke-linejoin="round"/>
</g>
</g>
</svg>
