<svg width="33" height="33" viewBox="0 0 33 33" fill="none" xmlns="http://www.w3.org/2000/svg">
<g id="Group 37296">
<circle id="Ellipse 1" cx="16.5" cy="16.5" r="16.5" fill="#477628"/>
<path id="Icon" d="M12.75 18.2801C12.75 18.2801 14.25 20.2801 16.75 20.2801C19.25 20.2801 20.75 18.2801 20.75 18.2801M19.75 13.2801H19.76M13.75 13.2801H13.76M26.75 16.2801C26.75 21.803 22.2728 26.2801 16.75 26.2801C11.2272 26.2801 6.75 21.803 6.75 16.2801C6.75 10.7573 11.2272 6.28014 16.75 6.28014C22.2728 6.28014 26.75 10.7573 26.75 16.2801ZM20.25 13.2801C20.25 13.5563 20.0261 13.7801 19.75 13.7801C19.4739 13.7801 19.25 13.5563 19.25 13.2801C19.25 13.004 19.4739 12.7801 19.75 12.7801C20.0261 12.7801 20.25 13.004 20.25 13.2801ZM14.25 13.2801C14.25 13.5563 14.0261 13.7801 13.75 13.7801C13.4739 13.7801 13.25 13.5563 13.25 13.2801C13.25 13.004 13.4739 12.7801 13.75 12.7801C14.0261 12.7801 14.25 13.004 14.25 13.2801Z" stroke="white" stroke-linecap="round" stroke-linejoin="round"/>
</g>
</svg>
