<svg width="33" height="33" viewBox="0 0 33 33" fill="none" xmlns="http://www.w3.org/2000/svg">
<g id="Group 37296">
<circle id="Ellipse 1" cx="16.5" cy="16.5" r="16.5" fill="#036C66"/>
<path id="Icon" d="M12.75 18.28C12.75 18.28 14.25 20.28 16.75 20.28C19.25 20.28 20.75 18.28 20.75 18.28M19.75 13.28H19.76M13.75 13.28H13.76M26.75 16.28C26.75 21.8029 22.2728 26.28 16.75 26.28C11.2272 26.28 6.75 21.8029 6.75 16.28C6.75 10.7572 11.2272 6.28003 16.75 6.28003C22.2728 6.28003 26.75 10.7572 26.75 16.28ZM20.25 13.28C20.25 13.5562 20.0261 13.78 19.75 13.78C19.4739 13.78 19.25 13.5562 19.25 13.28C19.25 13.0039 19.4739 12.78 19.75 12.78C20.0261 12.78 20.25 13.0039 20.25 13.28ZM14.25 13.28C14.25 13.5562 14.0261 13.78 13.75 13.78C13.4739 13.78 13.25 13.5562 13.25 13.28C13.25 13.0039 13.4739 12.78 13.75 12.78C14.0261 12.78 14.25 13.0039 14.25 13.28Z" stroke="white" stroke-linecap="round" stroke-linejoin="round"/>
</g>
</svg>
