<svg width="83" height="83" viewBox="0 0 83 83" fill="none" xmlns="http://www.w3.org/2000/svg">
<g id="SVG" clip-path="url(#clip0_892_641)">
<g id="Group">
<path id="Vector" fill-rule="evenodd" clip-rule="evenodd" d="M41.9693 0.919189C50.0844 0.919189 58.0173 3.3256 64.7648 7.83411C71.5122 12.3426 76.7712 18.7507 79.8768 26.2481C82.9823 33.7455 83.7948 41.9954 82.2117 49.9546C80.6285 57.9138 76.7207 65.2248 70.9824 70.963C65.2442 76.7012 57.9332 80.609 49.974 82.1922C42.0148 83.7754 33.7649 82.9629 26.2675 79.8573C18.7702 76.7518 12.362 71.4928 7.85352 64.7453C3.34501 57.9979 0.938599 50.065 0.938599 41.9499C0.938599 31.0679 5.26147 20.6316 12.9562 12.9368C20.651 5.24206 31.0873 0.919189 41.9693 0.919189ZM41.9693 3.0787C49.6573 3.0787 57.1727 5.35846 63.565 9.62968C69.9574 13.9009 74.9396 19.9718 77.8816 27.0745C80.8237 34.1773 81.5935 41.993 80.0936 49.5333C78.5938 57.0736 74.8917 63.9998 69.4554 69.436C64.0192 74.8722 57.093 78.5744 49.5527 80.0742C42.0124 81.5741 34.1967 80.8043 27.094 77.8622C19.9912 74.9202 13.9203 69.9379 9.64909 63.5456C5.37787 57.1533 3.09811 49.6379 3.09811 41.9499C3.09811 31.6406 7.19346 21.7536 14.4832 14.4638C21.773 7.17405 31.66 3.0787 41.9693 3.0787ZM41.9693 17.4754C46.8099 17.4754 51.5418 18.9108 55.5666 21.6001C59.5914 24.2894 62.7284 28.1118 64.5808 32.5839C66.4332 37.0561 66.9179 41.9771 65.9735 46.7246C65.0292 51.4722 62.6982 55.8332 59.2754 59.256C55.8526 62.6788 51.4916 65.0098 46.7441 65.9541C41.9965 66.8985 37.0755 66.4138 32.6033 64.5614C28.1312 62.7089 24.3088 59.572 21.6195 55.5472C18.9303 51.5224 17.4949 46.7905 17.4949 41.9499C17.4949 35.4589 20.0734 29.2337 24.6633 24.6438C29.2531 20.054 35.4783 17.4754 41.9693 17.4754ZM41.9693 19.635C46.3828 19.635 50.6972 20.9437 54.3668 23.3957C58.0365 25.8477 60.8967 29.3328 62.5857 33.4103C64.2746 37.4879 64.7165 41.9747 63.8555 46.3033C62.9945 50.632 60.8692 54.6082 57.7484 57.729C54.6276 60.8498 50.6514 62.9751 46.3228 63.8361C41.9941 64.6971 37.5073 64.2552 33.4298 62.5662C29.3522 60.8773 25.8671 58.0171 23.4151 54.3474C20.9631 50.6778 19.6544 46.3634 19.6544 41.9499C19.6544 36.0316 22.0054 30.3557 26.1903 26.1709C30.3751 21.986 36.051 19.635 41.9693 19.635ZM27.5726 34.0936C27.4754 48.6149 37.7432 57.7863 43.0707 57.7863C48.0109 57.7863 58.1808 48.3284 57.7935 33.7121C54.9347 33.6811 52.1139 33.0532 49.5119 31.8687C46.9099 30.6841 44.584 28.969 42.6834 26.8333C40.8323 29.0559 38.5249 30.8545 35.9177 32.1071C33.3105 33.3598 30.4645 34.0373 27.5726 34.0936ZM42.6892 55.6268C48.9683 55.5671 56.2991 45.5138 55.5239 35.5779C46.7145 34.234 42.6834 29.4636 42.6834 29.4636C42.5394 29.4636 36.8405 35.0783 29.7321 36.1912C30.182 53.3773 42.8173 56.0285 42.6892 55.6268ZM21.4813 22.4826C21.9757 22.1503 22.4462 21.7837 22.8893 21.3856C23.9748 20.4289 24.4823 19.6652 24.6004 18.9993C24.657 18.7071 24.6456 18.4057 24.5669 18.1186C24.4883 17.8314 24.3446 17.5663 24.1469 17.3437C23.871 17.0273 23.4943 16.8158 23.0804 16.7451C22.6666 16.6744 22.2411 16.7488 21.8758 16.9557L21.8614 16.9392C22.0534 16.6422 22.1446 16.2913 22.1213 15.9385C22.0981 15.5857 21.9618 15.2497 21.7325 14.9805C21.5385 14.7577 21.286 14.5937 21.0036 14.507C20.7212 14.4202 20.4201 14.4142 20.1345 14.4896C19.4157 14.6792 18.7636 15.0644 18.2507 15.6024C17.7117 16.0676 17.2115 16.5758 16.7549 17.122L21.4813 22.4826ZM18.6991 16.86C18.8518 16.6815 19.0183 16.5154 19.1973 16.3633C19.7559 15.8709 20.2648 15.8112 20.629 16.2244C20.9933 16.6376 20.8731 17.2041 20.2252 17.7749L19.8199 18.1348L18.6991 16.86ZM20.5981 19.0152L21.0192 18.6437C21.6354 18.101 22.3221 17.8843 22.808 18.435C23.3119 19.0109 23.0059 19.6587 22.4481 20.1489C22.2922 20.2938 22.1278 20.4291 21.9557 20.5542L20.5981 19.0152ZM27.1817 9.62058C25.2338 10.5276 24.6623 12.5935 25.5793 14.5716C26.4539 16.4518 28.2881 17.397 30.2461 16.4849C32.1752 15.5873 32.8763 13.6646 31.8693 11.5008C31.0213 9.67889 29.2088 8.67615 27.1817 9.61986V9.62058ZM27.6942 10.8234C28.7222 10.3447 29.7638 11.0991 30.3152 12.2833C30.9126 13.566 30.7816 14.7941 29.7731 15.2634C28.7646 15.7327 27.7432 15.1 27.1421 13.8079C26.541 12.5158 26.6857 11.2928 27.6942 10.8234ZM37.0665 14.1253L36.7786 11.9529C36.6423 10.9035 36.4825 9.85728 36.2992 8.81508L36.3301 8.79997C36.8168 9.62132 37.3469 10.4162 37.9181 11.1812L39.8264 13.7596L41.5381 13.5336L40.5872 6.32229L39.09 6.51952L39.3678 8.62721C39.4904 9.63273 39.6695 10.6306 39.9041 11.616L39.8717 11.6203C39.4224 10.8161 38.9208 10.0423 38.3701 9.30385L36.523 6.85641L34.6183 7.10763L35.57 14.3197L37.0665 14.1253ZM44.095 13.5372C44.6935 13.715 45.3031 13.8533 45.9198 13.9511C47.0839 14.2269 48.3074 14.0948 49.3858 13.5768C49.8499 13.2794 50.2414 12.8817 50.5317 12.4131C50.8219 11.9445 51.0035 11.4168 51.063 10.8688C51.1821 10.3587 51.1749 9.82729 51.042 9.32063C50.9092 8.81398 50.6547 8.34739 50.3007 7.96136C49.5322 7.23712 48.5412 6.79417 47.489 6.70452C46.7563 6.57645 46.0149 6.50426 45.2712 6.48857L44.095 13.5372ZM46.7066 7.92248C46.9563 7.91487 47.2062 7.93466 47.4516 7.98151C47.763 8.00088 48.0662 8.08982 48.3387 8.24178C48.6112 8.39375 48.8462 8.60487 49.0264 8.85963C49.2065 9.11439 49.3273 9.40629 49.3798 9.71388C49.4323 10.0215 49.4152 10.3369 49.3297 10.637C49.0417 12.3516 47.9497 13.0009 46.482 12.7454C46.2922 12.7212 46.1052 12.679 45.9234 12.6194L46.7066 7.92248ZM58.2672 13.255L55.8391 12.1249L56.4769 10.7572L59.0518 11.9557L59.6212 10.732L55.5483 8.83596L52.4789 15.4289L56.6893 17.3883L57.2587 16.1646L54.5463 14.902L55.2755 13.3357L57.7042 14.4658L58.2672 13.255ZM58.6148 18.5041C59.0364 18.9628 59.4875 19.3934 59.9653 19.7933C60.8226 20.6282 61.9408 21.1433 63.1325 21.2524C63.6834 21.2355 64.2235 21.0954 64.7132 20.8424C65.2029 20.5894 65.6297 20.23 65.9622 19.7904C66.3261 19.4139 66.5927 18.9542 66.7389 18.4514C66.885 17.9485 66.9063 17.4176 66.8008 16.9046C66.5131 15.8898 65.8908 15.0019 65.0351 14.3852C64.4721 13.8986 63.8729 13.4556 63.2427 13.06L58.6148 18.5041ZM63.7394 15.0266C63.9577 15.1479 64.1622 15.2927 64.3491 15.4585C64.6056 15.6351 64.8194 15.867 64.9747 16.1371C65.13 16.4071 65.2229 16.7085 65.2466 17.0191C65.2702 17.3297 65.2241 17.6417 65.1115 17.9321C64.9989 18.2226 64.8228 18.4842 64.596 18.6977C63.4701 20.0215 62.1989 20.0172 61.0688 19.044C60.9183 18.9257 60.7795 18.7934 60.6541 18.6488L63.7394 15.0266ZM22.3048 61.7929L17.3379 67.1082L18.5451 68.2362L23.512 62.9202L22.3048 61.7929ZM22.5733 71.3725L23.7063 69.4952C24.255 68.5898 24.783 67.672 25.29 66.7425L25.3231 66.7497C25.1907 67.6961 25.1086 68.6488 25.0769 69.6039L24.9581 72.8122L26.4381 73.7048L30.1985 67.471L28.9028 66.69L27.8036 68.5119C27.2716 69.3746 26.7883 70.2664 26.3561 71.1832L26.3287 71.1667C26.479 70.257 26.5697 69.3384 26.6001 68.4169L26.6836 65.3511L25.0373 64.3577L21.2762 70.5915L22.5733 71.3725ZM29.5874 74.6715C30.1188 75.1457 30.7498 75.4947 31.4338 75.693C33.3457 76.2689 34.5456 75.549 34.8991 74.3843C35.1964 73.4025 34.812 72.5847 33.7193 71.7591C32.9238 71.1458 32.5906 70.8305 32.7252 70.3856C32.8346 70.0257 33.2593 69.8141 33.941 70.0207C34.4465 70.1713 34.9108 70.4355 35.2986 70.7931L36.035 69.6284C35.5481 69.2153 34.9781 68.9119 34.3635 68.7386C32.7201 68.2405 31.4525 68.8495 31.0926 70.0343C30.7859 71.0472 31.346 71.9167 32.3818 72.6704C33.1283 73.224 33.3838 73.5723 33.2521 74.0064C33.1146 74.4606 32.641 74.6449 31.9175 74.4261C31.3134 74.2308 30.7612 73.9015 30.3022 73.4629L29.5874 74.6715ZM37.8511 69.7766L37.6654 73.8322C37.5589 76.1515 38.5911 77.2154 40.4246 77.2982C42.3235 77.3853 43.5047 76.3696 43.6077 74.1259L43.7941 70.0488L42.155 69.9768L41.9628 74.1619C41.9045 75.4454 41.4021 76.0277 40.539 75.9881C39.6975 75.9493 39.2527 75.2913 39.3095 74.0402L39.5017 69.8551L37.8511 69.7766ZM47.0478 76.975L48.6429 76.6403L48.0555 73.8401L48.5414 73.7379C49.1986 73.6105 49.5564 73.7897 49.9329 74.637C50.1633 75.1815 50.4463 75.7023 50.778 76.1918L52.4264 75.8456C52.2313 75.5994 51.8138 74.7162 51.4237 73.9603C51.3228 73.6876 51.1586 73.4428 50.9446 73.2459C50.7306 73.0491 50.4729 72.9058 50.1927 72.828L50.1863 72.7964C50.5223 72.5911 50.7876 72.2881 50.9464 71.9278C51.1054 71.5676 51.1503 71.1674 51.0753 70.7808C51.0308 70.4954 50.92 70.2244 50.7519 69.9895C50.5838 69.7546 50.3629 69.5624 50.1071 69.4282C49.3314 69.1329 48.4791 69.1061 47.6863 69.3519C46.9675 69.4978 46.2607 69.6977 45.5721 69.9501L47.0478 76.975ZM47.3983 70.7124C47.6315 70.6219 47.8724 70.553 48.1182 70.5066C48.2577 70.4489 48.4082 70.4228 48.559 70.4303C48.7098 70.4377 48.857 70.4785 48.9902 70.5497C49.1233 70.6208 49.239 70.7206 49.3289 70.8419C49.4189 70.9631 49.4808 71.1028 49.5103 71.2509C49.6406 71.8743 49.2498 72.376 48.4464 72.5466L47.813 72.6798L47.3983 70.7124ZM57.3429 68.9251L54.9214 70.0696L54.2735 68.7019L56.8419 67.4883L56.266 66.2646L52.204 68.1836L55.3129 74.7651L59.5118 72.782L58.9359 71.5583L56.2307 72.836L55.4929 71.2739L57.9144 70.1294L57.3429 68.9251ZM62.3098 71.0551C62.8372 70.7203 63.3421 70.3515 63.8214 69.9509C64.7946 69.2541 65.499 68.2442 65.8168 67.0902C65.8976 66.5447 65.855 65.988 65.6923 65.4611C65.5296 64.9341 65.2509 64.4504 64.8767 64.0453C64.5701 63.6204 64.1645 63.2767 63.6949 63.0441C63.2254 62.8115 62.7062 62.6971 62.1824 62.7107C61.1311 62.8147 60.1459 63.2714 59.3872 64.0064C58.8087 64.4748 58.2668 64.9866 57.7662 65.5375L62.3098 71.0551ZM59.7903 65.3943C59.9489 65.2008 60.128 65.0251 60.3245 64.8702C60.5437 64.6476 60.8101 64.4769 61.1041 64.3709C61.3981 64.265 61.7121 64.2263 62.023 64.2579C62.3339 64.2895 62.6337 64.3904 62.9004 64.5534C63.167 64.7163 63.3937 64.937 63.5637 65.1992C64.6694 66.5417 64.4405 67.7906 63.2837 68.7322C63.1405 68.8594 62.9855 68.9726 62.8209 69.0705L59.7903 65.3943ZM36.9305 43.3896L41.2495 47.7086L48.4479 40.5102L46.2883 38.3507L41.2495 43.3896L39.09 41.2301L36.9305 43.3896Z" fill="white"/>
</g>
</g>
<defs>
<clipPath id="clip0_892_641">
<rect width="82.0614" height="82.0614" fill="white" transform="translate(0.938599 0.919189)"/>
</clipPath>
</defs>
</svg>
