<svg width="109" height="109" viewBox="0 0 109 109" fill="none" xmlns="http://www.w3.org/2000/svg">
<g id="SVG" clip-path="url(#clip0_209_333)">
<g id="Group">
<path id="Vector" fill-rule="evenodd" clip-rule="evenodd" d="M54.5 0.375C65.1802 0.375 75.6205 3.54204 84.5008 9.47564C93.3811 15.4092 100.302 23.8429 104.389 33.7101C108.477 43.5773 109.546 54.4349 107.462 64.9099C105.379 75.3848 100.236 85.0067 92.6838 92.5587C85.1317 100.111 75.5098 105.254 65.0349 107.337C54.5599 109.421 43.7023 108.352 33.8351 104.264C23.9679 100.177 15.5342 93.256 9.60064 84.3758C3.66704 75.4955 0.5 65.0552 0.5 54.375C0.5 40.0533 6.18927 26.3182 16.3162 16.1912C26.4432 6.06427 40.1783 0.375 54.5 0.375ZM54.5 3.2171C64.6181 3.2171 74.5089 6.21746 82.9218 11.8388C91.3347 17.4601 97.8917 25.4498 101.764 34.7977C105.636 44.1456 106.649 54.4317 104.675 64.3554C102.701 74.2791 97.8287 83.3945 90.6741 90.5491C83.5195 97.7036 74.4041 102.576 64.4804 104.55C54.5567 106.524 44.2706 105.511 34.9227 101.639C25.5748 97.7667 17.5851 91.2097 11.9638 82.7968C6.34246 74.3839 3.34211 64.4931 3.34211 54.375C3.34211 40.8071 8.73194 27.7949 18.3259 18.2009C27.9199 8.60694 40.9321 3.2171 54.5 3.2171ZM54.5 22.1645C60.8706 22.1645 67.0982 24.0536 72.3952 27.5929C77.6922 31.1323 81.8207 36.1629 84.2586 42.0486C86.6966 47.9343 87.3345 54.4107 86.0916 60.659C84.8488 66.9072 81.781 72.6466 77.2763 77.1513C72.7716 81.656 67.0322 84.7237 60.784 85.9666C54.5357 87.2094 48.0593 86.5716 42.1736 84.1336C36.2879 81.6957 31.2573 77.5672 27.7179 72.2702C24.1786 66.9732 22.2895 60.7456 22.2895 54.375C22.2895 45.8322 25.6831 37.6394 31.7237 31.5987C37.7644 25.5581 45.9572 22.1645 54.5 22.1645ZM54.5 25.0066C60.3085 25.0066 65.9866 26.729 70.8162 29.956C75.6458 33.1831 79.4101 37.7698 81.6329 43.1362C83.8557 48.5026 84.4373 54.4076 83.3041 60.1045C82.1709 65.8014 79.3739 71.0343 75.2666 75.1416C71.1594 79.2488 65.9264 82.0459 60.2295 83.1791C54.5326 84.3123 48.6276 83.7307 43.2612 81.5079C37.8948 79.285 33.3081 75.5208 30.0811 70.6912C26.854 65.8616 25.1316 60.1835 25.1316 54.375C25.1316 46.586 28.2257 39.116 33.7334 33.6084C39.241 28.1007 46.711 25.0066 54.5 25.0066ZM35.5526 44.0354C35.4247 63.1467 48.938 75.2171 55.9495 75.2171C62.4513 75.2171 75.8357 62.7696 75.326 43.5333C71.5636 43.4925 67.8512 42.6662 64.4267 41.1072C61.0022 39.5483 57.9412 37.291 55.4398 34.4803C53.0035 37.4053 49.9668 39.7724 46.5356 41.421C43.1043 43.0697 39.3587 43.9613 35.5526 44.0354ZM55.4474 72.375C63.7113 72.2964 73.3593 59.0654 72.339 45.9889C60.7451 44.2201 55.4398 37.9419 55.4398 37.9419C55.2503 37.9419 47.75 45.3314 38.3947 46.796C38.9868 69.4145 55.616 72.9036 55.4474 72.375ZM27.536 28.7544C28.1867 28.317 28.8059 27.8345 29.3891 27.3106C30.8177 26.0515 31.4856 25.0464 31.6409 24.17C31.7155 23.7854 31.7005 23.3888 31.597 23.0109C31.4935 22.633 31.3043 22.284 31.0441 21.9911C30.681 21.5746 30.1852 21.2964 29.6406 21.2033C29.096 21.1103 28.5359 21.2082 28.0552 21.4805L28.0362 21.4587C28.2889 21.0679 28.4089 20.6061 28.3783 20.1417C28.3478 19.6773 28.1683 19.2352 27.8666 18.8809C27.6112 18.5877 27.2789 18.3719 26.9073 18.2577C26.5356 18.1435 26.1394 18.1356 25.7635 18.2348C24.8175 18.4843 23.9593 18.9913 23.2842 19.6994C22.5749 20.3116 21.9165 20.9804 21.3156 21.6993L27.536 28.7544ZM23.8744 21.3545C24.0753 21.1195 24.2945 20.901 24.53 20.7008C25.2652 20.0528 25.9349 19.9742 26.4143 20.5179C26.8937 21.0617 26.7355 21.8073 25.8828 22.5586L25.3495 23.0323L23.8744 21.3545ZM26.3736 24.1909L26.9278 23.702C27.7387 22.9877 28.6425 22.7026 29.282 23.4273C29.9452 24.1852 29.5425 25.0378 28.8083 25.683C28.6032 25.8737 28.3868 26.0518 28.1603 26.2164L26.3736 24.1909ZM35.0382 11.8268C32.4746 13.0205 31.7224 15.7394 32.9294 18.3428C34.0804 20.8173 36.4943 22.0612 39.0712 20.8609C41.6101 19.6795 42.5328 17.1491 41.2075 14.3013C40.0915 11.9035 37.706 10.5838 35.0382 11.8258V11.8268ZM35.7127 13.4098C37.0656 12.7798 38.4364 13.7727 39.1621 15.3311C39.9484 17.0193 39.776 18.6355 38.4487 19.2532C37.1215 19.8709 35.7772 19.0382 34.9861 17.3376C34.1951 15.6371 34.3855 14.0275 35.7127 13.4098ZM48.0475 17.7554L47.6685 14.8963C47.4892 13.5152 47.2789 12.1383 47.0376 10.7667L47.0783 10.7468C47.7188 11.8278 48.4165 12.8739 49.1682 13.8807L51.6797 17.2742L53.9325 16.9767L52.6811 7.48595L50.7105 7.74553L51.0762 10.5194C51.2375 11.8428 51.4732 13.156 51.782 14.4529L51.7394 14.4586C51.148 13.4003 50.4878 12.3819 49.7632 11.4099L47.3322 8.18889L44.8255 8.51953L46.0779 18.0112L48.0475 17.7554ZM57.2976 16.9814C58.0853 17.2154 58.8876 17.3974 59.6992 17.5262C61.2312 17.8891 62.8415 17.7152 64.2607 17.0335C64.8715 16.6421 65.3868 16.1187 65.7688 15.502C66.1508 14.8852 66.3897 14.1907 66.4681 13.4695C66.6248 12.7982 66.6153 12.0988 66.4405 11.432C66.2656 10.7652 65.9307 10.1512 65.4648 9.6431C64.4534 8.68995 63.1492 8.10698 61.7644 7.989C60.8001 7.82045 59.8243 7.72544 58.8456 7.70479L57.2976 16.9814ZM60.7346 9.59195C61.0633 9.58192 61.3921 9.60797 61.7152 9.66963C62.125 9.69512 62.524 9.81217 62.8826 10.0122C63.2413 10.2122 63.5506 10.49 63.7877 10.8253C64.0248 11.1606 64.1838 11.5448 64.2528 11.9496C64.3219 12.3544 64.2994 12.7695 64.1868 13.1645C63.8079 15.4211 62.3707 16.2756 60.4391 15.9393C60.1893 15.9074 59.9432 15.8519 59.7039 15.7735L60.7346 9.59195ZM75.9494 16.61L72.7539 15.1227L73.5933 13.3227L76.982 14.9001L77.7314 13.2895L72.3712 10.7942L68.3316 19.4711L73.8727 22.0498L74.6221 20.4393L71.0524 18.7776L72.0121 16.7162L75.2085 18.2035L75.9494 16.61ZM76.407 23.5183C76.9618 24.1219 77.5555 24.6887 78.1842 25.215C79.3126 26.3138 80.7842 26.9917 82.3526 27.1353C83.0777 27.113 83.7885 26.9286 84.4329 26.5957C85.0774 26.2627 85.6391 25.7896 86.0767 25.2112C86.5557 24.7156 86.9065 24.1107 87.0989 23.4489C87.2912 22.787 87.3192 22.0883 87.1804 21.4132C86.8017 20.0776 85.9828 18.9091 84.8565 18.0974C84.1156 17.4571 83.327 16.874 82.4976 16.3533L76.407 23.5183ZM83.1513 18.9415C83.4387 19.1012 83.7077 19.2918 83.9537 19.5099C84.2913 19.7425 84.5727 20.0476 84.7771 20.403C84.9815 20.7584 85.1037 21.1551 85.1349 21.5639C85.166 21.9727 85.1053 22.3833 84.9572 22.7655C84.809 23.1478 84.5771 23.4921 84.2786 23.7731C82.797 25.5153 81.1239 25.5096 79.6365 24.2288C79.4385 24.0731 79.2558 23.899 79.0908 23.7087L83.1513 18.9415ZM28.6198 80.4901L22.0829 87.4855L23.6717 88.97L30.2085 81.9737L28.6198 80.4901ZM28.9732 93.0977L30.4643 90.627C31.1864 89.4354 31.8813 88.2275 32.5485 87.0042L32.5921 87.0137C32.4179 88.2592 32.3098 89.5131 32.2681 90.77L32.1118 94.9925L34.0596 96.1672L39.0086 87.963L37.3034 86.9351L35.8567 89.3329C35.1565 90.4682 34.5204 91.642 33.9516 92.8486L33.9156 92.8268C34.1134 91.6295 34.2328 90.4206 34.2727 89.2078L34.3826 85.173L32.216 83.8656L27.266 92.0698L28.9732 93.0977ZM38.2043 97.4395C38.9037 98.0635 39.7341 98.5229 40.6343 98.7838C43.1505 99.5417 44.7298 98.5944 45.195 97.0615C45.5862 95.7693 45.0803 94.6931 43.6422 93.6065C42.5954 92.7993 42.1567 92.3844 42.3339 91.7989C42.4779 91.3252 43.0368 91.0467 43.934 91.3186C44.5993 91.5168 45.2104 91.8645 45.7207 92.3351L46.6899 90.8022C46.0491 90.2586 45.2989 89.8593 44.4901 89.6313C42.3273 88.9757 40.6589 89.7772 40.1853 91.3366C39.7817 92.6695 40.5187 93.8139 41.882 94.8058C42.8644 95.5344 43.2007 95.9929 43.0274 96.5641C42.8464 97.1619 42.2231 97.4045 41.2709 97.1165C40.4759 96.8594 39.7492 96.4261 39.1451 95.8489L38.2043 97.4395ZM49.0801 90.9974L48.8357 96.3349C48.6955 99.3873 50.054 100.788 52.4669 100.896C54.9661 101.011 56.5207 99.6743 56.6562 96.7214L56.9016 91.3555L54.7444 91.2608L54.4915 96.7688C54.4147 98.4579 53.7535 99.2244 52.6176 99.1722C51.5101 99.1211 50.9246 98.2552 50.9995 96.6087L51.2524 91.1007L49.0801 90.9974ZM61.1837 100.471L63.2831 100.031L62.51 96.3453L63.1495 96.2108C64.0144 96.0431 64.4853 96.279 64.9807 97.394C65.284 98.1107 65.6565 98.7961 66.0929 99.4404L68.2624 98.9847C68.0057 98.6607 67.4562 97.4982 66.9427 96.5035C66.81 96.1446 66.5939 95.8223 66.3122 95.5633C66.0306 95.3042 65.6915 95.1157 65.3227 95.0133L65.3142 94.9716C65.7565 94.7015 66.1056 94.3027 66.3147 93.8286C66.5238 93.3544 66.583 92.8277 66.4842 92.319C66.4257 91.9433 66.2799 91.5866 66.0586 91.2775C65.8374 90.9684 65.5467 90.7154 65.21 90.5389C64.1891 90.1502 63.0674 90.1149 62.024 90.4385C61.078 90.6304 60.1479 90.8935 59.2416 91.2257L61.1837 100.471ZM61.6451 92.229C61.9519 92.1098 62.269 92.0191 62.5924 91.958C62.776 91.8821 62.9742 91.8478 63.1726 91.8576C63.371 91.8674 63.5648 91.9211 63.7401 92.0148C63.9153 92.1085 64.0675 92.2398 64.1859 92.3994C64.3043 92.5589 64.3858 92.7428 64.4246 92.9376C64.5961 93.758 64.0817 94.4184 63.0244 94.6429L62.1907 94.8181L61.6451 92.229ZM74.7329 89.8767L71.546 91.383L70.6934 89.583L74.0736 87.9857L73.3157 86.3752L67.9697 88.9009L72.0614 97.5627L77.5874 94.9527L76.8295 93.3421L73.2693 95.0237L72.2982 92.9679L75.4852 91.4616L74.7329 89.8767ZM81.2698 92.6799C81.9639 92.2394 82.6285 91.7539 83.2593 91.2267C84.5401 90.3096 85.4672 88.9806 85.8854 87.4618C85.9916 86.7439 85.9357 86.0112 85.7216 85.3177C85.5074 84.6242 85.1406 83.9875 84.6481 83.4545C84.2446 82.8952 83.7107 82.4429 83.0928 82.1368C82.4748 81.8307 81.7915 81.6801 81.1021 81.698C79.7186 81.8349 78.422 82.4359 77.4235 83.4033C76.6621 84.0197 75.9488 84.6933 75.29 85.4184L81.2698 92.6799ZM77.954 85.2298C78.1627 84.9752 78.3984 84.744 78.657 84.5401C78.9455 84.2471 79.2961 84.0225 79.683 83.883C80.0699 83.7435 80.4832 83.6927 80.8924 83.7343C81.3015 83.7758 81.6961 83.9087 82.0471 84.1231C82.398 84.3375 82.6964 84.628 82.9201 84.9731C84.3753 86.7399 84.074 88.3836 82.5516 89.6228C82.3631 89.7902 82.1591 89.9392 81.9424 90.068L77.954 85.2298ZM47.8684 56.2697L53.5526 61.9539L63.0263 52.4803L60.1842 49.6381L53.5526 56.2697L50.7105 53.4276L47.8684 56.2697Z" fill="#477628"/>
</g>
</g>
<defs>
<clipPath id="clip0_209_333">
<rect width="108" height="108" fill="white" transform="translate(0.5 0.375)"/>
</clipPath>
</defs>
</svg>
