<svg width="64" height="43" viewBox="0 0 64 43" fill="none" xmlns="http://www.w3.org/2000/svg">
<g id="Group 37305">
<g id="Group 37304">
<path id="Vector" d="M25.9178 30.9347C25.9178 31.6353 25.3507 32.2025 24.6501 32.2025C23.9495 32.2025 23.3823 31.6353 23.3823 30.9347C23.3823 30.2341 23.9495 29.667 24.6501 29.667C25.3507 29.667 25.9178 30.2341 25.9178 30.9347Z" fill="#477628" stroke="white"/>
<path id="Vector_2" d="M56.4607 25.6303C54.8135 25.6303 53.308 26.2308 52.1445 27.2233L47.1945 26.5394V22.9989H48.0702C49.8384 22.9989 51.273 21.5643 51.273 19.7962V14.8503C51.273 13.2406 50.0719 11.8769 48.4747 11.6726L32.9991 9.7084C32.0858 9.59163 31.1683 9.8752 30.4802 10.4799C29.788 11.0887 29.3918 11.9645 29.3918 12.8861V19.7962C29.3918 21.5643 30.8305 22.9989 32.5945 22.9989H33.6788V24.667L28.7162 23.9831C27.8572 23.4743 26.898 23.1282 25.8722 22.9697L23.3659 18.5534C23.0364 17.9696 22.4985 17.5526 21.8521 17.3733C21.3725 17.2398 20.8721 17.2523 20.4092 17.4066L11.6976 2.04354C11.4474 1.60566 10.9887 1.32626 10.4841 1.30541L2.51477 1.00098C1.71409 0.97179 1.03434 1.59732 1.00098 2.40635C0.97179 3.2112 1.59732 3.88677 2.40217 3.92013L9.55827 4.1912L11.389 7.41895L3.2529 12.8861C2.71494 13.2447 2.48141 13.9161 2.67324 14.5292L6.45563 26.7145C7.2021 29.1208 8.94108 31.1141 11.2222 32.1817C12.4232 32.7447 13.7243 33.0241 15.0254 33.0241C15.6259 33.0241 16.2306 32.9615 16.8228 32.8406C17.6819 36.3686 20.8596 39 24.6503 39C26.9147 39 28.9581 38.0617 30.426 36.5521H51.2938C52.524 38.045 54.3839 39 56.4607 39C60.1472 39 63.1456 36.0016 63.1456 32.3151C63.1456 28.6287 60.1472 25.6303 56.4607 25.6303ZM16.6601 29.8797C15.2673 30.2759 13.7994 30.1633 12.4566 29.5378C10.8969 28.808 9.75427 27.4985 9.2455 25.8513L5.78005 14.7043L12.8361 9.96695L17.8695 18.8453C17.4984 19.1665 17.2315 19.5876 17.098 20.0672C16.9229 20.7136 17.0063 21.3892 17.3357 21.9688L19.1039 25.0923C17.7986 26.3351 16.9104 28.0031 16.6601 29.8797ZM21.0305 20.3508L22.611 23.1407C22.2482 23.2366 21.8938 23.3492 21.5518 23.491L20.0797 20.8929L21.0305 20.3508ZM24.6503 36.0808C21.8104 36.0808 19.5042 33.7705 19.5042 30.9348C19.5042 28.0949 21.8104 25.7888 24.6503 25.7888C27.486 25.7888 29.7963 28.0949 29.7963 30.9348C29.7963 33.7705 27.486 36.0808 24.6503 36.0808ZM32.5945 20.0797C32.4403 20.0797 32.311 19.9546 32.311 19.7962V12.8861C32.311 12.7777 32.3652 12.711 32.4069 12.6734C32.4444 12.6401 32.507 12.6025 32.5945 12.6025H32.6321L48.1078 14.5667C48.2495 14.5876 48.3538 14.7085 48.3538 14.8503V19.7962C48.3538 19.9546 48.2287 20.0797 48.0702 20.0797H32.5945ZM44.2753 22.9989V26.1349L36.598 25.0715V22.9989H44.2753ZM49.9093 33.6329H32.2401C32.5445 32.7905 32.7155 31.8814 32.7155 30.9348C32.7155 29.6504 32.4069 28.441 31.8731 27.3651L50.2346 29.9048C49.9427 30.6554 49.7758 31.4644 49.7758 32.3151C49.7758 32.7655 49.8217 33.2076 49.9093 33.6329ZM56.4607 36.0808C54.3839 36.0808 52.695 34.3919 52.695 32.3151C52.695 30.2384 54.3839 28.5494 56.4607 28.5494C58.5375 28.5494 60.2264 30.2384 60.2264 32.3151C60.2264 34.3919 58.5375 36.0808 56.4607 36.0808Z" fill="#477628" stroke="white"/>
<path id="Vector_3" d="M57.7284 32.3151C57.7284 33.0157 57.1612 33.5829 56.4606 33.5829C55.76 33.5829 55.1929 33.0157 55.1929 32.3151C55.1929 31.6145 55.76 31.0474 56.4606 31.0474C57.1612 31.0474 57.7284 31.6145 57.7284 32.3151Z" fill="#477628" stroke="white"/>
<path id="Vector_4" d="M47.2646 17.6094C47.2646 17.0335 46.798 16.5669 46.2221 16.5669H34.651C34.075 16.5669 33.6084 17.0335 33.6084 17.6094C33.6084 18.1854 34.075 18.652 34.651 18.652H46.2221C46.798 18.652 47.2646 18.1854 47.2646 17.6094Z" fill="#477628" stroke="white"/>
</g>
</g>
</svg>
