<svg width="108" height="109" viewBox="0 0 108 109" fill="none" xmlns="http://www.w3.org/2000/svg">
<g id="SVG" clip-path="url(#clip0_209_324)">
<g id="Group">
<path id="Vector" fill-rule="evenodd" clip-rule="evenodd" d="M54 0.375C64.6802 0.375 75.1205 3.54204 84.0008 9.47564C92.8811 15.4092 99.8024 23.8429 103.889 33.7101C107.977 43.5773 109.046 54.4349 106.962 64.9099C104.879 75.3848 99.7358 85.0067 92.1838 92.5588C84.6317 100.111 75.0098 105.254 64.5349 107.337C54.0599 109.421 43.2023 108.352 33.3351 104.264C23.4679 100.177 15.0342 93.256 9.10064 84.3758C3.16704 75.4955 0 65.0552 0 54.375C0 40.0533 5.68927 26.3182 15.8162 16.1912C25.9432 6.06427 39.6783 0.375 54 0.375ZM54 3.21711C64.1181 3.21711 74.0089 6.21746 82.4218 11.8388C90.8347 17.4601 97.3917 25.4498 101.264 34.7977C105.136 44.1456 106.149 54.4317 104.175 64.3554C102.201 74.2791 97.3287 83.3945 90.1741 90.5491C83.0195 97.7037 73.9041 102.576 63.9804 104.55C54.0567 106.524 43.7706 105.511 34.4227 101.639C25.0748 97.7667 17.0851 91.2097 11.4638 82.7968C5.84246 74.3839 2.84211 64.4931 2.84211 54.375C2.84211 40.8071 8.23194 27.7949 17.8259 18.2009C27.4199 8.60694 40.4321 3.21711 54 3.21711ZM54 22.1645C60.3706 22.1645 66.5982 24.0536 71.8952 27.5929C77.1922 31.1323 81.3207 36.1629 83.7586 42.0486C86.1966 47.9343 86.8345 54.4107 85.5916 60.659C84.3488 66.9072 81.281 72.6466 76.7763 77.1513C72.2716 81.656 66.5322 84.7238 60.284 85.9666C54.0357 87.2095 47.5593 86.5716 41.6736 84.1336C35.7879 81.6957 30.7573 77.5672 27.2179 72.2702C23.6786 66.9732 21.7895 60.7456 21.7895 54.375C21.7895 45.8322 25.1831 37.6394 31.2237 31.5987C37.2644 25.5581 45.4572 22.1645 54 22.1645ZM54 25.0066C59.8085 25.0066 65.4866 26.729 70.3162 29.956C75.1458 33.1831 78.9101 37.7698 81.1329 43.1362C83.3557 48.5026 83.9373 54.4076 82.8041 60.1045C81.6709 65.8014 78.8739 71.0344 74.7666 75.1416C70.6594 79.2489 65.4264 82.0459 59.7295 83.1791C54.0326 84.3123 48.1276 83.7307 42.7612 81.5079C37.3948 79.2851 32.8081 75.5208 29.5811 70.6912C26.354 65.8616 24.6316 60.1835 24.6316 54.375C24.6316 46.586 27.7257 39.116 33.2334 33.6084C38.741 28.1007 46.211 25.0066 54 25.0066ZM52.3004 40.5519C54.353 40.309 56.4292 40.3498 58.4706 40.6732C58.7615 40.7244 59.0391 40.7812 59.2996 40.8437C59.9163 40.9896 54.1582 52.4518 58.7368 45.8487C59.1698 45.2244 62.1938 41.9342 62.6211 42.2241C64.8754 41.0277 67.3207 40.2326 69.8476 39.8746C71.6599 39.6605 75.2921 44.7137 71.5339 43.2785C69.7576 42.6002 67.1334 43.2557 64.5527 44.5025C65.4745 46.3157 66.9098 50.4207 65.8847 57.2711C64.0459 69.5679 45.9133 68.0711 36.2501 66.1479C45.5959 59.4501 36.8157 42.1265 52.3004 40.5519ZM96.0139 55.994L96.823 58.5586L99.2331 59.5116L97.1422 61.1534L96.9821 63.8667L94.8808 62.3168L92.3722 63.0406L93.1642 60.441L91.7735 58.1749L94.3645 58.118L96.0139 55.994ZM12.7478 56.2603L11.9255 58.7291L9.47368 59.6433L11.5977 61.2235L11.7597 63.8345L13.8941 62.3433L16.4425 63.0396L15.6382 60.5376L17.0526 58.3539L14.4208 58.299L12.7449 56.2546M18.7503 41.8546C19.4787 41.2658 20.066 40.5212 20.4688 39.6756C21.6265 37.3148 20.9425 35.6019 19.5044 34.8962C18.2918 34.3012 17.1502 34.628 15.8438 35.871C14.8784 36.7748 14.3981 37.1405 13.8486 36.8714C13.4024 36.6526 13.2196 36.0557 13.6326 35.2145C13.9354 34.5899 14.3771 34.0428 14.9239 33.6153L13.5673 32.4112C12.9276 32.9562 12.4123 33.632 12.0562 34.3931C11.0605 36.4224 11.5825 38.1977 13.05 38.9177C14.3005 39.5316 15.5482 38.9878 16.7447 37.8027C17.622 36.9501 18.1288 36.6924 18.6641 36.9557C19.2259 37.2314 19.3642 37.8851 18.9256 38.7785C18.5443 39.5225 17.9991 40.1704 17.3312 40.6732L18.7503 41.8546ZM24.0395 29.4441L26.4136 30.4208L27.8839 28.6123L18.5788 24.8758L16.7874 27.0908L22.3768 35.403L23.7932 33.6608L22.3162 31.5766L24.0395 29.4441ZM21.2495 30.3081L20.0312 28.5848C19.6996 28.1111 19.2268 27.5427 18.8754 27.0775L18.8934 27.0557C19.4239 27.3039 20.0833 27.6242 20.6318 27.8458L22.5853 28.6644L21.2495 30.3081ZM29.4916 27.4356L31.1684 26.0544L26.2127 20.0859L28.2249 18.4157L27.0635 17.0155L21.3992 21.7173L22.5559 23.1118L24.5368 21.4729L29.4916 27.4356ZM29.3438 15.6523L34.2322 23.8944L36.1023 22.785L31.2139 14.5429L29.3438 15.6523ZM37.2401 21.5421C38.1754 21.595 39.1106 21.4377 39.9771 21.0816C42.4203 20.1115 43.0655 18.3873 42.4724 16.8952C41.9741 15.6409 40.9093 15.1161 39.1074 15.1587C37.7811 15.1795 37.1842 15.1274 36.9587 14.5599C36.7749 14.0976 37.0402 13.5339 37.9118 13.1872C38.5552 12.928 39.2493 12.8195 39.9411 12.8698L39.7449 11.0698C38.9053 11.0437 38.0699 11.1981 37.2951 11.5227C35.1957 12.3564 34.3895 14.0228 34.9929 15.5414C35.5074 16.8355 36.7929 17.2713 38.4793 17.1984C39.7014 17.1567 40.2489 17.3054 40.4687 17.8615C40.6999 18.4423 40.3636 19.0192 39.4389 19.3868C38.6573 19.6812 37.819 19.7946 36.9872 19.7184L37.2401 21.5421ZM44.9526 19.1736L47.0937 18.7947L46.4305 15.0052L49.8164 14.4093L49.5114 12.6747L46.1255 13.2706L45.7465 11.1163L49.3702 10.4787L49.0623 8.72984L43.2947 9.74068L44.9526 19.1736ZM56.4518 15.6987L57.1329 18.1742L59.4635 18.2282L56.7161 8.583L53.874 8.51668L50.724 18.0226L52.9693 18.0747L53.7082 15.6324L56.4518 15.6987ZM54.0587 14.0171L54.6745 11.9983C54.8432 11.4478 55.0023 10.7259 55.1577 10.1613H55.1861C55.3149 10.7297 55.4703 11.4478 55.6266 12.0201L56.1761 14.0654L54.0587 14.0171ZM67.3731 18.2263C66.7607 18.2821 66.1433 18.2331 65.5475 18.0813C64.7571 17.8592 64.0848 17.3371 63.6739 16.6264C63.263 15.9157 63.1459 15.0726 63.3477 14.2768C63.5495 13.4811 64.0541 12.7956 64.7541 12.3666C65.454 11.9376 66.2938 11.7989 67.0945 11.9803C67.7 12.1308 68.2692 12.4011 68.7685 12.7751L69.6212 11.2186C68.9747 10.7338 68.2316 10.3936 67.4422 10.221C64.6342 9.50195 61.9266 10.6862 61.1157 13.8513C60.4393 16.4935 61.5799 18.9122 64.7867 19.7335C65.5915 19.9718 66.4364 20.0433 67.2698 19.9438L67.3731 18.2263ZM70.344 21.7069L72.2795 22.6978L75.816 15.7934L78.1427 16.9852L78.9717 15.3662L72.4206 12.0115L71.5917 13.6306L73.8805 14.8034L70.344 21.7069ZM81.1374 16.9426L75.4882 24.6741L77.2437 25.9539L82.8928 18.2215L81.1374 16.9426ZM88.8584 23.451C86.9296 21.381 84.1083 21.5032 82.008 23.4614C80.011 25.3221 79.5752 28.0031 81.5135 30.0826C83.4224 32.1317 86.1148 32.2265 88.4132 30.0826C90.3477 28.2835 90.8649 25.6053 88.8584 23.4529V23.451ZM87.5615 24.5822C88.5789 25.6745 88.0598 27.285 86.8036 28.4578C85.4413 29.7273 83.8506 30.0684 82.8521 28.9931C81.8536 27.9178 82.2297 26.3859 83.6024 25.1089C84.9752 23.8318 86.563 23.5126 87.5615 24.5841V24.5822ZM86.5355 36.4082L89.0934 35.0629C90.3278 34.4162 91.5474 33.7415 92.7512 33.0393L92.7834 33.0706C91.9907 34.0469 91.2504 35.0645 90.5656 36.1192L88.2493 39.6529L89.3094 41.6651L97.7864 37.1992L96.8589 35.4381L94.3816 36.7435C93.1949 37.3533 92.0436 38.0296 90.9332 38.769L90.9133 38.7311C91.7027 37.8086 92.4306 36.8351 93.0922 35.817L95.2712 32.4197L94.0917 30.1811L85.6146 34.647L86.5355 36.4082ZM25.5903 83.2498L23.2105 80.5906L21.9496 81.717L22.9339 82.8188L21.4399 84.1536C21.0451 83.9262 20.7049 83.6152 20.4429 83.2424C20.1809 82.8696 20.0036 82.4441 19.9233 81.9956C19.843 81.5472 19.8618 81.0865 19.9782 80.6461C20.0946 80.2056 20.3059 79.7958 20.5972 79.4456C20.8886 79.0953 21.253 78.8129 21.6649 78.6183C22.0768 78.4236 22.5263 78.3213 22.9819 78.3186C23.4375 78.3158 23.8882 78.4127 24.3024 78.6024C24.7167 78.7921 25.0844 79.07 25.38 79.4168C25.9083 79.9703 26.3107 80.6315 26.5595 81.3551L28.1548 80.5385C27.8443 79.6842 27.3605 78.9033 26.7338 78.2449C24.6411 75.903 21.7421 75.3876 19.3585 77.4984C18.8604 77.9048 18.4524 78.4104 18.1603 78.983C17.8682 79.5556 17.6984 80.1828 17.6618 80.8246C17.6718 81.5286 17.821 82.2238 18.1008 82.8699C18.3806 83.5161 18.7855 84.1004 19.2922 84.5894C20.029 85.3889 20.8832 86.0715 21.8255 86.6139L25.5903 83.2498ZM29.3533 81.1372L26.2876 85.5131C24.5349 88.0151 24.9319 89.924 26.91 91.3101C28.9582 92.7453 30.9837 92.4469 32.6833 90.0283L35.7651 85.6296L33.9963 84.3905L30.8331 88.9056C29.8629 90.2907 28.8947 90.5834 27.9635 89.9316C27.0559 89.295 27.0246 88.2501 27.9711 86.9L31.1343 82.3849L29.3533 81.1372ZM38.3533 94.4629L38.0984 97.0208L40.2537 97.9104L41.1613 87.9204L38.5333 86.8366L32.1726 94.5766L34.2483 95.4292L35.8172 93.416L38.3533 94.4629ZM36.7247 92.0386L38.0217 90.375C38.3779 89.9222 38.7853 89.3064 39.1339 88.8346L39.1604 88.8459C39.0752 89.4257 38.9615 90.1476 38.9027 90.7407L38.6792 92.8476L36.7247 92.0386ZM42.8931 98.5527L45.0057 98.9259L45.6603 95.2179L46.3045 95.3316C47.1695 95.4993 47.5181 95.8925 47.5626 97.1127C47.5773 97.8905 47.6677 98.665 47.8326 99.4252L50.0116 99.8117C49.8941 99.4157 49.8221 98.132 49.7113 97.017C49.7226 96.634 49.6426 96.2538 49.4778 95.9079C49.3131 95.5619 49.0684 95.2601 48.7639 95.0275L48.7715 94.9849C49.2832 94.8992 49.7563 94.6588 50.1274 94.2962C50.4985 93.9336 50.7496 93.4661 50.8472 92.9566C50.9328 92.5863 50.9305 92.2011 50.8403 91.8319C50.7502 91.4627 50.5747 91.1198 50.328 90.8307C49.5254 90.0892 48.4973 89.6382 47.4082 89.5498C46.4589 89.3754 45.4977 89.2731 44.5329 89.2438L42.8931 98.5527ZM46.3926 91.076C46.7209 91.0799 47.0481 91.1135 47.3703 91.1765C48.3471 91.3659 48.8586 91.9012 48.7052 92.769C48.5593 93.5942 47.8355 94.0148 46.7725 93.8272L45.9332 93.6785L46.3926 91.076ZM57.6663 97.2993L58.5066 99.7236L60.8353 99.6289L57.4683 90.1846L54.6262 90.303L52.1015 99.9936L54.3439 99.8989L54.9227 97.4139L57.6663 97.2993ZM55.1709 95.7835L55.6541 93.7306C55.7877 93.1697 55.8995 92.4403 56.0169 91.8661H56.0454C56.2112 92.4279 56.4111 93.1309 56.6053 93.6917L57.2864 95.6964L55.1709 95.7835ZM65.4253 98.636L64.6532 95.8574C64.2836 94.5142 63.8834 93.1797 63.4528 91.8548L63.4907 91.8302C64.2761 92.8116 65.1129 93.7508 65.9975 94.6438L68.9571 97.6555L71.1474 97.0473L68.5895 87.8199L66.673 88.3524L67.4223 91.0495C67.7658 92.3376 68.1817 93.6053 68.6681 94.8466L68.6274 94.8579C67.8935 93.891 67.0969 92.9732 66.2428 92.1106L63.3875 89.2609L60.9508 89.9373L63.5135 99.1647L65.4253 98.636ZM75.8255 94.8513L77.7477 93.8367L74.1249 86.9777L76.4356 85.7566L75.5829 84.146L69.0755 87.5831L69.9281 89.1936L72.2018 87.9924L75.8255 94.8513ZM82.9933 83.0225L80.2459 85.2279L79.0011 83.6752L81.9171 81.3371L80.7982 79.9539L76.1855 83.6487L82.1776 91.1215L86.9457 87.2989L85.8344 85.9129L82.7631 88.376L81.342 86.6026L84.0894 84.3971L82.9933 83.0225ZM88.2985 77.1365L86.0078 79.8147L84.4967 78.5215L86.9258 75.6794L85.5758 74.5246L81.7333 79.017L89.0109 85.2422L92.9833 80.6001L91.6333 79.4452L89.0754 82.437L87.3474 80.9591L89.6381 78.2809L88.2985 77.1365Z" fill="#477628"/>
</g>
</g>
<defs>
<clipPath id="clip0_209_324">
<rect width="108" height="108" fill="white" transform="translate(0 0.375)"/>
</clipPath>
</defs>
</svg>
