<svg width="83" height="83" viewBox="0 0 83 83" fill="none" xmlns="http://www.w3.org/2000/svg">
<g id="SVG" clip-path="url(#clip0_892_628)">
<g id="Group">
<path id="Vector" fill-rule="evenodd" clip-rule="evenodd" d="M41.0307 0.751953C49.1458 0.751953 57.0787 3.15836 63.8262 7.66688C70.5736 12.1754 75.8326 18.5835 78.9382 26.0809C82.0437 33.5783 82.8562 41.8282 81.2731 49.7874C79.6899 57.7465 75.7821 65.0575 70.0438 70.7958C64.3056 76.534 56.9946 80.4418 49.0354 82.025C41.0762 83.6082 32.8263 82.7956 25.3289 79.6901C17.8316 76.5846 11.4234 71.3256 6.91492 64.5781C2.40641 57.8307 0 49.8978 0 41.7827C0 30.9007 4.32287 20.4643 12.0176 12.7696C19.7124 5.07482 30.1487 0.751953 41.0307 0.751953ZM41.0307 2.91146C48.7187 2.91146 56.2341 5.19122 62.6264 9.46244C69.0188 13.7337 74.001 19.8045 76.943 26.9073C79.8851 34.0101 80.6549 41.8258 79.155 49.3661C77.6552 56.9063 73.9531 63.8325 68.5168 69.2688C63.0806 74.705 56.1544 78.4071 48.6141 79.907C41.0738 81.4068 33.2581 80.6371 26.1554 77.695C19.0526 74.7529 12.9817 69.7707 8.71049 63.3784C4.43927 56.986 2.15951 49.4707 2.15951 41.7827C2.15951 31.4734 6.25486 21.5863 13.5446 14.2966C20.8344 7.00681 30.7214 2.91146 41.0307 2.91146ZM41.0307 17.3082C45.8713 17.3082 50.6032 18.7436 54.628 21.4329C58.6528 24.1222 61.7898 27.9446 63.6422 32.4167C65.4946 36.8888 65.9793 41.8098 65.0349 46.5574C64.0906 51.305 61.7596 55.6659 58.3368 59.0887C54.914 62.5116 50.553 64.8425 45.8055 65.7869C41.0579 66.7312 36.1369 66.2465 31.6647 64.3941C27.1926 62.5417 23.3702 59.4048 20.6809 55.38C17.9917 51.3552 16.5563 46.6233 16.5563 41.7827C16.5563 35.2916 19.1348 29.0665 23.7247 24.4766C28.3145 19.8868 34.5397 17.3082 41.0307 17.3082ZM41.0307 19.4677C45.4442 19.4677 49.7586 20.7765 53.4282 23.2285C57.0979 25.6805 59.9581 29.1656 61.6471 33.2431C63.336 37.3206 63.7779 41.8074 62.9169 46.1361C62.0559 50.4648 59.9306 54.4409 56.8098 57.5617C53.689 60.6825 49.7128 62.8078 45.3842 63.6688C41.0555 64.5299 36.5687 64.088 32.4912 62.399C28.4136 60.71 24.9285 57.8499 22.4765 54.1802C20.0245 50.5105 18.7158 46.1962 18.7158 41.7827C18.7158 35.8644 21.0668 30.1885 25.2517 26.0036C29.4365 21.8188 35.1124 19.4677 41.0307 19.4677ZM39.7393 31.2795C41.2989 31.095 42.8765 31.126 44.4276 31.3717C44.6486 31.4105 44.8595 31.4537 45.0575 31.5012C45.5261 31.6121 41.1509 40.3214 44.6299 35.3041C44.9589 34.8298 47.2566 32.3298 47.5812 32.55C49.2941 31.641 51.1522 31.0369 53.0722 30.7648C54.4492 30.6022 57.2091 34.4418 54.3535 33.3512C53.0038 32.8358 51.0098 33.3339 49.049 34.2812C49.7494 35.659 50.8399 38.7781 50.0611 43.9832C48.6639 53.3267 34.8862 52.1894 27.5439 50.7281C34.645 45.6388 27.9736 32.4759 39.7393 31.2795ZM72.9541 43.0129L73.5688 44.9615L75.4001 45.6856L73.8114 46.9331L73.6897 48.9947L72.0931 47.8171L70.187 48.367L70.7888 46.3918L69.7321 44.6699L71.7008 44.6268L72.9541 43.0129ZM9.68613 43.2151L9.06131 45.091L7.19837 45.7857L8.81225 46.9864L8.93534 48.9702L10.5571 47.8372L12.4935 48.3663L11.8824 46.4652L12.9571 44.806L10.9574 44.7642L9.68397 43.2108M14.247 32.2693C14.8005 31.8219 15.2467 31.2562 15.5528 30.6137C16.4324 28.8198 15.9127 27.5184 14.82 26.9821C13.8986 26.53 13.0312 26.7784 12.0386 27.7228C11.305 28.4095 10.9401 28.6874 10.5226 28.483C10.1835 28.3167 10.0446 27.8632 10.3585 27.224C10.5885 26.7494 10.9241 26.3337 11.3396 26.0089L10.3088 25.094C9.82276 25.508 9.43124 26.0216 9.16065 26.5999C8.4041 28.1418 8.80073 29.4907 9.91576 30.0378C10.8659 30.5043 11.814 30.0911 12.7231 29.1906C13.3897 28.5427 13.7748 28.3469 14.1815 28.547C14.6084 28.7565 14.7135 29.2532 14.3802 29.932C14.0904 30.4973 13.6762 30.9896 13.1687 31.3717L14.247 32.2693ZM18.2659 22.8394L20.0698 23.5816L21.187 22.2074L14.1167 19.3684L12.7555 21.0514L17.0026 27.3672L18.0787 26.0434L16.9565 24.4598L18.2659 22.8394ZM16.146 23.4959L15.2202 22.1865C14.9683 21.8266 14.6091 21.3947 14.342 21.0413L14.3557 21.0247C14.7588 21.2133 15.2598 21.4566 15.6766 21.6251L17.1609 22.247L16.146 23.4959ZM22.4085 21.3134L23.6826 20.2639L19.9172 15.7289L21.4461 14.4598L20.5636 13.3959L16.2597 16.9684L17.1386 18.028L18.6438 16.7827L22.4085 21.3134ZM22.2962 12.36L26.0106 18.6226L27.4316 17.7797L23.7172 11.5171L22.2962 12.36ZM28.2961 16.8353C29.0067 16.8755 29.7173 16.756 30.3757 16.4854C32.2322 15.7483 32.7224 14.4382 32.2717 13.3045C31.8931 12.3514 31.084 11.9526 29.7149 11.985C28.7071 12.0008 28.2536 11.9613 28.0823 11.5301C27.9426 11.1788 28.1442 10.7505 28.8064 10.487C29.2953 10.2901 29.8227 10.2076 30.3483 10.2459L30.1993 8.87819C29.5614 8.85832 28.9266 8.97566 28.3378 9.22228C26.7427 9.85573 26.1301 11.1219 26.5886 12.2758C26.9795 13.2591 27.9563 13.5902 29.2376 13.5348C30.1662 13.5031 30.5823 13.6162 30.7493 14.0387C30.9249 14.48 30.6694 14.9183 29.9668 15.1976C29.3729 15.4214 28.7359 15.5075 28.1039 15.4496L28.2961 16.8353ZM34.1563 15.0357L35.7831 14.7477L35.2792 11.8684L37.8519 11.4156L37.6201 10.0976L35.0474 10.5504L34.7595 8.91347L37.5129 8.42902L37.2789 7.1002L32.8966 7.86826L34.1563 15.0357ZM42.8937 12.3953L43.4112 14.2763L45.182 14.3173L43.0945 6.98862L40.935 6.93823L38.5415 14.1611L40.2475 14.2007L40.809 12.3449L42.8937 12.3953ZM41.0754 11.1176L41.5432 9.58364C41.6714 9.16541 41.7923 8.61689 41.9104 8.18787H41.932C42.0299 8.61977 42.1479 9.16541 42.2667 9.60019L42.6842 11.1543L41.0754 11.1176ZM51.1919 14.3158C50.7267 14.3582 50.2576 14.321 49.8048 14.2057C49.2043 14.0369 48.6935 13.6403 48.3812 13.1002C48.069 12.5602 47.98 11.9196 48.1334 11.315C48.2867 10.7103 48.6701 10.1895 49.202 9.8635C49.7338 9.53752 50.3719 9.43219 50.9803 9.56996C51.4404 9.68437 51.8728 9.88972 52.2523 10.1739L52.9001 8.99121C52.4089 8.62288 51.8443 8.36438 51.2445 8.23322C49.1109 7.68686 47.0536 8.58666 46.4374 10.9916C45.9235 12.9993 46.7901 14.837 49.2268 15.4611C49.8383 15.6421 50.4803 15.6965 51.1135 15.6209L51.1919 14.3158ZM53.4494 16.9605L54.92 17.7135L57.6071 12.4673L59.3751 13.3729L60.0049 12.1427L55.0272 9.59371L54.3974 10.8239L56.1365 11.7151L53.4494 16.9605ZM61.6505 13.3405L57.3581 19.2151L58.6919 20.1876L62.9843 14.3122L61.6505 13.3405ZM67.5171 18.2857C66.0515 16.7129 63.9079 16.8058 62.312 18.2937C60.7946 19.7074 60.4634 21.7446 61.9362 23.3246C63.3867 24.8816 65.4325 24.9536 67.1788 23.3246C68.6487 21.9576 69.0417 19.9227 67.5171 18.2872V18.2857ZM66.5317 19.1452C67.3048 19.9752 66.9103 21.1989 65.9558 22.0901C64.9207 23.0547 63.7121 23.3138 62.9534 22.4968C62.1947 21.6798 62.4804 20.5158 63.5235 19.5455C64.5665 18.5751 65.773 18.3325 66.5317 19.1467V19.1452ZM65.7521 28.131L67.6957 27.1088C68.6336 26.6174 69.5603 26.1048 70.4749 25.5712L70.4994 25.595C69.8971 26.3368 69.3346 27.11 68.8143 27.9114L67.0543 30.5964L67.8598 32.1253L74.3009 28.732L73.5962 27.3938L71.7138 28.3858C70.8121 28.8491 69.9374 29.3629 69.0936 29.9248L69.0785 29.896C69.6783 29.195 70.2314 28.4554 70.7341 27.6818L72.3897 25.1004L71.4935 23.3995L65.0524 26.7928L65.7521 28.131ZM19.4442 63.7226L17.636 61.702L16.6779 62.5579L17.4258 63.3951L16.2906 64.4093C15.9907 64.2365 15.7321 64.0002 15.5331 63.7169C15.334 63.4337 15.1993 63.1104 15.1383 62.7696C15.0773 62.4288 15.0915 62.0789 15.18 61.7442C15.2684 61.4095 15.429 61.0981 15.6503 60.832C15.8717 60.5659 16.1486 60.3513 16.4616 60.2034C16.7746 60.0555 17.1161 59.9777 17.4623 59.9757C17.8085 59.9736 18.1509 60.0472 18.4657 60.1913C18.7804 60.3355 19.0599 60.5467 19.2844 60.8101C19.6859 61.2307 19.9916 61.7331 20.1806 62.2829L21.3928 61.6624C21.1569 61.0133 20.7892 60.42 20.3131 59.9197C18.723 58.1403 16.5203 57.7487 14.7092 59.3525C14.3307 59.6613 14.0206 60.0454 13.7987 60.4805C13.5767 60.9156 13.4477 61.3922 13.4199 61.8798C13.4275 62.4148 13.5409 62.943 13.7535 63.4339C13.9661 63.9249 14.2738 64.3689 14.6588 64.7404C15.2186 65.3479 15.8677 65.8666 16.5836 66.2787L19.4442 63.7226ZM22.3034 62.1174L19.974 65.4423C18.6423 67.3434 18.944 68.7938 20.447 69.847C22.0033 70.9375 23.5423 70.7108 24.8337 68.873L27.1753 65.5308L25.8314 64.5893L23.4278 68.02C22.6907 69.0724 21.955 69.2948 21.2474 68.7996C20.5578 68.3159 20.5341 67.5219 21.2532 66.4961L23.6567 63.0654L22.3034 62.1174ZM29.1419 72.2426L28.9483 74.1861L30.5859 74.8621L31.2755 67.2714L29.2787 66.4479L24.4457 72.329L26.0228 72.9768L27.2149 71.4472L29.1419 72.2426ZM27.9045 70.4005L28.8899 69.1365C29.1606 68.7924 29.4701 68.3245 29.735 67.966L29.7552 67.9747C29.6904 68.4152 29.604 68.9637 29.5594 69.4143L29.3895 71.0153L27.9045 70.4005ZM32.5914 75.3501L34.1966 75.6337L34.694 72.8163L35.1835 72.9027C35.8407 73.0301 36.1056 73.3288 36.1394 74.256C36.1506 74.8469 36.2193 75.4354 36.3446 76.0131L38.0002 76.3068C37.9109 76.0059 37.8562 75.0305 37.772 74.1833C37.7806 73.8923 37.7198 73.6034 37.5947 73.3405C37.4695 73.0776 37.2835 72.8484 37.0522 72.6716L37.0579 72.6392C37.4467 72.5741 37.8063 72.3915 38.0882 72.116C38.3702 71.8404 38.561 71.4852 38.6351 71.098C38.7002 70.8167 38.6984 70.524 38.6299 70.2435C38.5614 69.963 38.4281 69.7024 38.2406 69.4827C37.6308 68.9193 36.8496 68.5766 36.0221 68.5095C35.3008 68.377 34.5704 68.2992 33.8374 68.277L32.5914 75.3501ZM35.2504 69.6692C35.4999 69.6721 35.7485 69.6977 35.9933 69.7455C36.7355 69.8894 37.1242 70.2961 37.0076 70.9555C36.8967 71.5825 36.3467 71.9021 35.5391 71.7596L34.9013 71.6466L35.2504 69.6692ZM43.8165 74.3978L44.455 76.2398L46.2243 76.1679L43.666 68.9918L41.5065 69.0818L39.5882 76.445L41.292 76.373L41.7318 74.4849L43.8165 74.3978ZM41.9204 73.246L42.2876 71.6861C42.3891 71.26 42.474 70.7057 42.5633 70.2695H42.5849C42.7108 70.6964 42.8627 71.2305 43.0103 71.6566L43.5278 73.1798L41.9204 73.246ZM49.712 75.4135L49.1253 73.3022C48.8445 72.2816 48.5404 71.2676 48.2133 70.2609L48.2421 70.2422C48.8388 70.9879 49.4746 71.7015 50.1467 72.3801L52.3955 74.6684L54.0598 74.2063L52.1162 67.1951L50.66 67.5996L51.2294 69.649C51.4904 70.6278 51.8064 71.591 52.176 72.5341L52.145 72.5428C51.5874 71.808 50.9821 71.1107 50.3332 70.4552L48.1636 68.29L46.3122 68.8039L48.2593 75.8151L49.712 75.4135ZM57.6143 72.5377L59.0749 71.7668L56.3222 66.5552L58.0779 65.6273L57.4301 64.4036L52.4855 67.0151L53.1334 68.2388L54.861 67.3261L57.6143 72.5377ZM63.0606 63.5498L60.9731 65.2256L60.0272 64.0458L62.2429 62.2692L61.3928 61.2183L57.8879 64.0256L62.4408 69.7037L66.0638 66.7992L65.2194 65.7461L62.8857 67.6176L61.8059 66.2701L63.8935 64.5943L63.0606 63.5498ZM67.0917 59.0775L65.3511 61.1125L64.203 60.1299L66.0487 57.9704L65.0229 57.0929L62.1032 60.5064L67.633 65.2364L70.6513 61.7092L69.6255 60.8317L67.682 63.105L66.369 61.982L68.1096 59.947L67.0917 59.0775Z" fill="white"/>
</g>
</g>
<defs>
<clipPath id="clip0_892_628">
<rect width="82.0614" height="82.0614" fill="white" transform="translate(0 0.751953)"/>
</clipPath>
</defs>
</svg>
