<svg width="26" height="17" viewBox="0 0 26 17" fill="none" xmlns="http://www.w3.org/2000/svg">
<g id="social-behance.svg" clip-path="url(#clip0_507_52)">
<g id="Group">
<path id="Vector" d="M10.4636 7.54551C10.4636 7.54551 12.8621 7.34563 12.8621 4.54739C12.8621 1.74916 10.9633 0.350037 8.46486 0.350037L3.86776 0.449974H3.66788H0.27002V16.0402H3.66788H3.76782H8.26499C8.26499 16.0402 13.2618 16.24 13.2618 11.4431C13.3618 11.4431 13.5617 7.54551 10.4636 7.54551ZM3.86776 3.24821H7.86524H8.46486C8.46486 3.24821 9.56417 3.24821 9.56417 4.84721C9.56417 6.4462 8.86461 6.74601 8.16505 6.74601H3.86776V3.24821ZM8.16505 13.2419C8.06511 13.2419 7.96518 13.2419 7.86524 13.2419H3.86776V9.04457H8.36493C8.36493 9.04457 9.96392 9.04457 9.96392 11.1432C10.0639 13.042 8.76467 13.2419 8.16505 13.2419Z" fill="#FEFBDF"/>
<path id="Vector_2" d="M19.9576 4.44751C13.9614 4.44751 13.9614 10.4437 13.9614 10.4437C13.9614 10.4437 13.5616 16.44 19.9576 16.44C19.9576 16.44 25.2542 16.7398 25.2542 12.2426H22.5559C22.5559 12.2426 22.6559 13.9415 20.0575 13.9415C20.0575 13.9415 17.3592 14.1414 17.3592 11.2432H25.4541C25.3542 11.1433 26.2536 4.44751 19.9576 4.44751ZM17.2593 9.14455C17.2593 9.14455 17.5591 6.74606 19.9576 6.74606C22.3561 6.74606 22.3561 9.14455 22.3561 9.14455H17.2593Z" fill="#FEFBDF"/>
<path id="Vector_3" d="M22.9558 1.34949H16.5598V3.24829H22.9558V1.34949Z" fill="#FEFBDF"/>
</g>
</g>
<defs>
<clipPath id="clip0_507_52">
<rect width="25.1842" height="15.89" fill="white" transform="translate(0.27002 0.450012)"/>
</clipPath>
</defs>
</svg>
