<svg width="15" height="15" viewBox="0 0 15 15" fill="none" xmlns="http://www.w3.org/2000/svg">
<g id="&#240;&#159;&#166;&#134; icon &#34;tick circle&#34;">
<g id="Group">
<path id="Vector" d="M7.16048 14.321C3.21056 14.321 0 11.1104 0 7.16048C0 3.21056 3.21056 0 7.16048 0C11.1104 0 14.321 3.21056 14.321 7.16048C14.321 11.1104 11.1104 14.321 7.16048 14.321ZM7.16048 0.999136C3.76341 0.999136 0.999136 3.76341 0.999136 7.16048C0.999136 10.5575 3.76341 13.3218 7.16048 13.3218C10.5575 13.3218 13.3218 10.5575 13.3218 7.16048C13.3218 3.76341 10.5575 0.999136 7.16048 0.999136Z" fill="white"/>
<path id="Vector_2" d="M6.21429 9.54532C6.08107 9.54532 5.95451 9.49204 5.86126 9.39878L3.97619 7.51375C3.78302 7.32058 3.78302 7.00086 3.97619 6.80769C4.16936 6.61452 4.48908 6.61452 4.68225 6.80769L6.21429 8.3397L9.63799 4.91599C9.83116 4.72283 10.1509 4.72283 10.344 4.91599C10.5372 5.10916 10.5372 5.42888 10.344 5.62205L6.56732 9.39878C6.47406 9.49204 6.34751 9.54532 6.21429 9.54532Z" fill="white"/>
</g>
</g>
</svg>
