<svg width="22" height="18" viewBox="0 0 22 18" fill="none" xmlns="http://www.w3.org/2000/svg">
<path id="twitter-icon" d="M21.4926 2.89933C20.7199 3.24221 19.8902 3.47312 19.0195 3.57708C19.9082 3.04427 20.5919 2.20057 20.9128 1.19392C20.0801 1.68775 19.1584 2.04562 18.1778 2.23855C17.392 1.40185 16.2725 0.879028 15.0339 0.879028C12.2539 0.879028 10.2106 3.47312 10.8384 6.16718C7.25862 5.98724 4.08574 4.27284 1.96149 1.66775C0.832889 3.60307 1.37669 6.13618 3.29402 7.41773C2.58826 7.39574 1.92349 7.2018 1.3437 6.87892C1.29671 8.87422 2.72722 10.7406 4.79849 11.1564C4.1927 11.3213 3.52894 11.3593 2.85318 11.2304C3.40098 12.9418 4.99142 14.1863 6.87675 14.2213C5.06639 15.6398 2.7852 16.2746 0.5 16.0047C2.40633 17.2263 4.66954 17.94 7.10168 17.94C15.0979 17.94 19.6153 11.1864 19.3434 5.12854C20.1851 4.52175 20.9148 3.76303 21.4926 2.89933Z" fill="#FFFFDE"/>
</svg>
